<?xml version="1.0" standalone="no"?>
<!DOCTYPE svg PUBLIC "-//W3C//DTD SVG 20010904//EN"
 "http://www.w3.org/TR/2001/REC-SVG-20010904/DTD/svg10.dtd">
<svg version="1.0" xmlns="http://www.w3.org/2000/svg"
 width="700.000000pt" height="700.000000pt" viewBox="0 0 700.000000 700.000000"
 preserveAspectRatio="xMidYMid meet">
<metadata>
Created by potrace 1.14, written by Peter Selinger 2001-2017
</metadata>
<g transform="translate(0.000000,700.000000) scale(0.100000,-0.100000)"
fill="#000000" stroke="none">
<path d="M2967 6711 c-31 -10 -190 -128 -197 -146 -35 -88 -216 -572 -260
-695 -41 -114 -129 -350 -145 -390 -8 -19 -42 -109 -75 -200 -34 -91 -84 -226
-112 -300 -27 -74 -65 -178 -85 -230 -19 -52 -39 -104 -43 -115 -9 -22 -97
-258 -219 -590 -45 -121 -88 -236 -96 -255 -7 -19 -46 -123 -85 -230 -40 -107
-77 -208 -84 -225 -7 -16 -23 -59 -36 -95 -12 -36 -26 -74 -31 -85 -4 -11 -47
-126 -94 -255 -48 -129 -91 -244 -96 -255 -4 -11 -108 -288 -229 -615 -122
-327 -255 -687 -297 -799 -45 -122 -72 -206 -66 -210 6 -3 16 -17 23 -30 7
-14 17 -30 22 -35 5 -6 37 -51 72 -101 l62 -90 472 -3 c260 -1 472 -3 472 -5
0 -2 -13 -46 -30 -97 -16 -52 -30 -100 -30 -106 0 -8 160 -233 187 -264 5 -5
3033 -7 3050 -2 7 2 52 56 99 120 48 65 91 122 96 128 4 6 -5 53 -22 110 -16
54 -30 102 -30 107 0 4 211 7 470 7 l470 0 27 38 c16 21 58 83 96 138 l67 99
-36 95 c-20 52 -48 129 -64 170 -83 229 -324 870 -336 897 -8 17 -14 34 -14
38 0 4 -11 34 -24 68 -14 34 -75 197 -136 362 -61 165 -115 309 -119 320 -5
11 -19 47 -31 80 -12 33 -26 69 -30 80 -5 11 -126 335 -270 720 -144 385 -297
795 -341 911 -43 116 -79 214 -79 217 0 4 -9 26 -19 50 -10 23 -91 238 -180
477 -89 239 -165 444 -170 455 -9 22 -11 26 -138 368 l-89 238 -94 66 -94 67
-523 0 c-288 1 -529 -1 -536 -3z m968 -3561 c239 -717 431 -1306 426 -1309 -7
-5 -1657 -6 -1722 -2 -12 1 26 123 173 569 104 312 191 574 193 582 2 8 20 62
40 120 20 58 37 110 38 115 12 46 410 1235 413 1233 2 -2 199 -591 439 -1308z"/>
</g>
</svg>
